<?xml version="1.0" encoding="UTF-8"?>
<svg xmlns="http://www.w3.org/2000/svg" xmlns:xlink="http://www.w3.org/1999/xlink" width="60px" height="59px" viewBox="0 0 60 59" version="1.1">
    <!-- Generator: Sketch 52.6 (67491) - http://www.bohemiancoding.com/sketch -->
    <title>050 - Shop</title>
    <desc>Created with Sketch.</desc>
    <g id="Page-1" stroke="none" stroke-width="1" fill="none" fill-rule="evenodd">
        <g id="050---Shop">
            <path d="M54,31 L54,58 L6,58 L6,31 C8.209139,31 10,29.209139 10,27 C10,29.209139 11.790861,31 14,31 C16.209139,31 18,29.209139 18,27 C18,29.209139 19.790861,31 22,31 C24.209139,31 26,29.209139 26,27 C26,29.209139 27.790861,31 30,31 C32.209139,31 34,29.209139 34,27 C34,29.209139 35.790861,31 38,31 C40.209139,31 42,29.209139 42,27 C42,29.209139 43.790861,31 46,31 C48.209139,31 50,29.209139 50,27 C50,29.209139 51.790861,31 54,31 Z" id="Path" fill="#F29C1F"/>
            <path d="M10,24 L10,27 C10,29.209139 8.209139,31 6,31 C3.790861,31 2,29.209139 2,27 L2,24 L10,24 Z" id="Path" fill="#F0C419"/>
            <path d="M58,24 L58,27 C58,29.209139 56.209139,31 54,31 C51.790861,31 50,29.209139 50,27 L50,24 L58,24 Z" id="Path" fill="#F0C419"/>
            <path d="M42,36 C45.8659932,36 49,39.1340068 49,43 L49,58 L35,58 L35,43 C35,39.1340068 38.1340068,36 42,36 Z" id="Path" fill="#A56A43"/>
            <path d="M13,38 L28,38 C28.5522847,38 29,38.4477153 29,39 L29,49 L12,49 L12,39 C12,38.4477153 12.4477153,38 13,38 Z" id="Path" fill="#2FA8CC"/>
            <rect id="Rectangle" fill="#F0C419" x="10" y="49" width="21" height="4" rx="1"/>
            <path d="M50,24 L50,27 C50,29.209139 48.209139,31 46,31 C43.790861,31 42,29.209139 42,27 L42,24 L50,24 Z" id="Path" fill="#FF5364"/>
            <path d="M42,24 L42,27 C42,29.209139 40.209139,31 38,31 C35.790861,31 34,29.209139 34,27 L34,24 L42,24 Z" id="Path" fill="#F0C419"/>
            <path d="M34,24 L34,27 C34,29.209139 32.209139,31 30,31 C27.790861,31 26,29.209139 26,27 L26,24 L34,24 Z" id="Path" fill="#FF5364"/>
            <path d="M26,24 L26,27 C26,29.209139 24.209139,31 22,31 C19.790861,31 18,29.209139 18,27 L18,24 L26,24 Z" id="Path" fill="#F0C419"/>
            <path d="M18,24 L18,27 C18,29.209139 16.209139,31 14,31 C11.790861,31 10,29.209139 10,27 L10,24 L18,24 Z" id="Path" fill="#FF5364"/>
            <polygon id="Path" fill="#F3D55B" points="58 24 2 24 13 18 47 18"/>
            <rect id="Rectangle" fill="#E64C3C" x="8" y="0" width="44" height="18" rx="2"/>
            <path d="M17.5,5 C18.3284271,5 19,5.67157288 19,6.5 C19,7.05228475 19.4477153,7.5 20,7.5 C20.5522847,7.5 21,7.05228475 21,6.5 C21,4.56700338 19.4329966,3 17.5,3 C15.5670034,3 14,4.56700338 14,6.5 C14,8.43299662 15.5670034,10 17.5,10 C18.3284271,10 19,10.6715729 19,11.5 C19,12.3284271 18.3284271,13 17.5,13 C16.6715729,13 16,12.3284271 16,11.5 C16,10.9477153 15.5522847,10.5 15,10.5 C14.4477153,10.5 14,10.9477153 14,11.5 C14,13.4329966 15.5670034,15 17.5,15 C19.4329966,15 21,13.4329966 21,11.5 C21,9.56700338 19.4329966,8 17.5,8 C16.6715729,8 16,7.32842712 16,6.5 C16,5.67157288 16.6715729,5 17.5,5 Z" id="Path" fill="#FFFFFF"/>
            <path d="M28,3 C27.4477153,3 27,3.44771525 27,4 L27,8 L24,8 L24,4 C24,3.44771525 23.5522847,3 23,3 C22.4477153,3 22,3.44771525 22,4 L22,14 C22,14.5522847 22.4477153,15 23,15 C23.5522847,15 24,14.5522847 24,14 L24,10 L27,10 L27,14 C27,14.5522847 27.4477153,15 28,15 C28.5522847,15 29,14.5522847 29,14 L29,4 C29,3.44771525 28.5522847,3 28,3 Z" id="Path" fill="#FFFFFF"/>
            <path d="M34,3 C31.790861,3 30,4.790861 30,7 L30,11 C30,13.209139 31.790861,15 34,15 C36.209139,15 38,13.209139 38,11 L38,7 C38,4.790861 36.209139,3 34,3 Z M36,11 C36,12.1045695 35.1045695,13 34,13 C32.8954305,13 32,12.1045695 32,11 L32,7 C32,5.8954305 32.8954305,5 34,5 C35.1045695,5 36,5.8954305 36,7 L36,11 Z" id="Shape" fill="#FFFFFF" fill-rule="nonzero"/>
            <path d="M43,3 L40,3 C39.4477153,3 39,3.44771525 39,4 L39,14 C39,14.5522847 39.4477153,15 40,15 C40.5522847,15 41,14.5522847 41,14 L41,10 L43,10 C44.6568542,10 46,8.65685425 46,7 L46,6 C46,4.34314575 44.6568542,3 43,3 Z M44,7 C44,7.55228475 43.5522847,8 43,8 L41,8 L41,5 L43,5 C43.5522847,5 44,5.44771525 44,6 L44,7 Z" id="Shape" fill="#FFFFFF" fill-rule="nonzero"/>
            <circle id="Oval" fill="#ECF0F1" cx="12" cy="4" r="1"/>
            <circle id="Oval" fill="#ECF0F1" cx="12" cy="14" r="1"/>
            <circle id="Oval" fill="#ECF0F1" cx="48" cy="4" r="1"/>
            <circle id="Oval" fill="#ECF0F1" cx="48" cy="14" r="1"/>
            <path d="M45,47 L43,47 C42.4477153,47 42,47.4477153 42,48 C42,48.5522847 42.4477153,49 43,49 L45,49 C45.5522847,49 46,48.5522847 46,48 C46,47.4477153 45.5522847,47 45,47 Z" id="Path" fill="#805333"/>
            <path d="M59,59 L1,59 C0.44771525,59 6.76353751e-17,58.5522847 0,58 C-6.76353751e-17,57.4477153 0.44771525,57 1,57 L59,57 C59.5522847,57 60,57.4477153 60,58 C60,58.5522847 59.5522847,59 59,59 Z" id="Path" fill="#D25627"/>
        </g>
    </g>
</svg>
